<svg xmlns="http://www.w3.org/2000/svg" width="2084" height="1042" viewBox="0 0 2084 1042" version="1.1"><path d="M 309.500 289.618 C 296.297 291.728, 287.920 297.687, 282.255 309 C 279.793 313.915, 279.502 315.563, 279.519 324.500 C 279.535 332.569, 279.952 335.403, 281.680 339.176 C 284.868 346.135, 291.089 352.306, 298.253 355.615 L 304.500 358.500 367.678 359 C 429.860 359.492, 430.900 359.533, 433.678 361.596 C 439.301 365.772, 438.975 375.416, 433.109 378.438 C 431.031 379.509, 415.079 379.934, 354.750 380.525 L 279 381.267 279 392.165 C 279 401.061, 279.283 403.171, 280.542 403.654 C 281.390 403.980, 316.603 403.853, 358.792 403.372 L 435.500 402.499 441.762 399.607 C 451.664 395.035, 457.797 386.961, 459.865 375.771 C 462.192 363.185, 457.037 349.498, 447.554 343.084 C 437.381 336.204, 441.151 336.552, 370.777 336 L 307.054 335.500 304.826 333.271 C 301.536 329.980, 300.907 319.093, 303.838 316.162 C 308.096 311.904, 310.837 311.773, 387.496 312.145 L 460.500 312.500 460.783 301.250 L 461.066 290 439.783 289.999 C 428.077 289.998, 394.650 289.805, 365.500 289.568 C 336.350 289.332, 311.150 289.354, 309.500 289.618 M 517.131 290.541 C 498.074 294.676, 483.829 307.495, 477.474 326.226 C 475.060 333.340, 474.659 336.113, 474.615 346 C 474.559 358.739, 475.970 365.036, 481.208 375.412 C 488.093 389.050, 503.572 400.422, 518.652 402.921 C 523.381 403.704, 544.845 403.969, 588 403.778 L 650.500 403.500 650.783 392.250 L 651.066 381 587.214 381 C 515.029 381, 516.341 381.121, 508.316 373.723 C 502.589 368.444, 499.355 362.033, 497.863 353.002 C 495.189 336.806, 501.719 321.882, 514.410 315.186 L 519.500 312.500 585 312.500 L 650.500 312.500 650.781 301.410 L 651.063 290.319 630.781 289.662 C 593.712 288.461, 524.240 288.998, 517.131 290.541 M 783.500 289.968 C 765.904 292.502, 750.497 303.381, 743.093 318.500 C 738.771 327.326, 737 335.465, 737 346.500 C 737 363.819, 742.060 376.980, 753 388.117 C 760.391 395.640, 768.509 400.210, 778.750 402.612 C 784.716 404.012, 792.904 404.112, 849.250 403.472 L 913 402.748 913 391.246 L 913 379.744 849.649 380.486 C 778.572 381.319, 779.303 381.375, 771.183 374.425 C 767.370 371.161, 762 362.745, 762 360.033 C 762 359.335, 779.820 359, 817 359 L 872 359 872 347.500 L 872 336 816.500 336 C 785.975 336, 761 335.812, 761 335.583 C 761 335.354, 761.878 333.117, 762.951 330.613 C 765.679 324.251, 772.103 317.651, 778.273 314.874 L 783.500 312.521 848.250 312.876 L 913 313.232 913 301.616 L 913 290 869.160 290 C 845.048 290, 817.261 289.798, 807.410 289.552 C 797.560 289.306, 786.800 289.493, 783.500 289.968 M 1687 289.660 C 1669.372 292.391, 1653.904 303.293, 1646.599 318.133 C 1633.610 344.520, 1640.686 377.810, 1662.633 393.557 C 1666.509 396.338, 1672.790 399.713, 1676.590 401.057 L 1683.500 403.500 1749.409 403.791 C 1785.659 403.951, 1815.661 403.726, 1816.079 403.291 C 1816.498 402.856, 1816.586 397.663, 1816.276 391.750 L 1815.713 381 1752.515 381 C 1684.638 381, 1684.004 380.957, 1676.394 375.824 C 1671.528 372.541, 1666.330 364.529, 1664.533 357.540 C 1659.928 339.636, 1666.683 321.848, 1680.739 314.865 L 1685.500 312.500 1751 312.500 L 1816.500 312.500 1816.781 301.410 L 1817.063 290.320 1795.870 289.660 C 1773.932 288.977, 1691.409 288.977, 1687 289.660 M 663 301.500 L 663 313 672.500 313 L 682 313 682 347.500 L 682 382 672.500 382 L 663 382 663 393.500 L 663 405 694 405 L 725 405 725 393.500 L 725 382 715.500 382 L 706 382 706 347.500 L 706 313 715.500 313 L 725 313 725 301.500 L 725 290 694 290 L 663 290 663 301.500 M 1115 301.500 L 1115 313 1153.500 313 L 1192 313 1192 359.033 L 1192 405.066 1203.250 404.783 L 1214.500 404.500 1214.760 358.750 L 1215.020 313 1253.510 313 L 1292 313 1292 301.500 L 1292 290 1203.500 290 L 1115 290 1115 301.500 M 1303.217 301.250 L 1303.500 312.500 1313.250 312.786 L 1323 313.072 1323 347.536 L 1323 382 1312.967 382 L 1302.934 382 1303.217 393.250 L 1303.500 404.500 1334.750 404.764 L 1366 405.028 1366 393.514 L 1366 382 1356 382 L 1346 382 1346 347.500 L 1346 313 1356 313 L 1366 313 1366 301.500 L 1366 290 1334.467 290 L 1302.934 290 1303.217 301.250 M 1377.216 300.750 L 1377.500 311.500 1465.750 311.755 L 1554 312.011 1554 301.005 L 1554 290 1465.466 290 L 1376.932 290 1377.216 300.750 M 1566 301.500 L 1566 313 1576 313 L 1586 313 1586 347.500 L 1586 382 1576 382 L 1566 382 1566 393.514 L 1566 405.028 1597.250 404.764 L 1628.500 404.500 1628.783 393.250 L 1629.066 382 1619.033 382 L 1609 382 1609 347.536 L 1609 313.072 1618.750 312.786 L 1628.500 312.500 1628.783 301.250 L 1629.066 290 1597.533 290 L 1566 290 1566 301.500 M 925 348 L 925 405 936.500 405 L 948 405 948 359.500 C 948 316.746, 948.106 314, 949.759 314 C 950.726 314, 978.064 334.459, 1010.509 359.465 L 1069.500 404.930 1086.407 404.965 L 1103.314 405 1102.657 388.340 C 1102.296 379.177, 1102 353.527, 1102 331.340 L 1102 291 1090.500 291 L 1079 291 1079 336.500 C 1079 372.247, 1078.732 381.995, 1077.750 381.975 C 1077.063 381.961, 1049.950 361.488, 1017.500 336.479 L 958.500 291.008 941.750 291.004 L 925 291 925 348 M 1419.411 338.484 C 1395.067 343.781, 1379.101 364.693, 1377.332 393.601 L 1376.696 404 1388.348 404 L 1400 404 1400.001 399.750 C 1400.003 393.565, 1402.632 379.613, 1404.461 376.075 C 1407.121 370.932, 1412.074 366.001, 1417.410 363.186 L 1422.500 360.500 1488.250 360.222 L 1554 359.945 1554 348.472 L 1554 337 1489.750 337.079 C 1440.391 337.141, 1424.089 337.466, 1419.411 338.484 M 267 466.338 L 267 477.676 302.250 478.336 C 321.637 478.700, 356.512 478.998, 379.750 478.998 L 422 479 421.947 488.750 C 421.918 494.113, 421.543 504.369, 421.115 511.543 C 420.472 522.317, 419.894 525.551, 417.798 530.130 C 414.717 536.859, 409.248 542.529, 403.089 545.377 C 398.603 547.452, 397.195 547.507, 340.250 547.795 L 282 548.090 282 559.545 L 282 571 338.250 570.983 C 401.173 570.963, 402.844 570.818, 415.222 564.314 C 427.551 557.835, 435.416 548.409, 440.783 533.679 C 443.389 526.525, 443.400 526.374, 443.767 490.750 L 444.136 455 355.568 455 L 267 455 267 466.338 M 487.045 456.092 C 474.504 458.551, 463.507 468.230, 459.950 479.938 C 458.032 486.254, 457.909 488.787, 458.194 516.115 L 458.500 545.500 461.306 551.214 C 464.729 558.185, 471.271 564.151, 478.853 567.217 L 484.500 569.500 549.500 569.500 L 614.500 569.500 620.147 567.217 C 627.391 564.288, 634.368 558.123, 637.797 551.623 L 640.500 546.500 640.500 514 L 640.500 481.500 637.852 475.852 C 634.804 469.351, 628.858 462.989, 623.072 460.037 C 613.437 455.122, 611.513 454.993, 549.540 455.110 C 517.618 455.170, 489.495 455.612, 487.045 456.092 M 1665 455.627 C 1663.075 455.880, 1658.621 457.027, 1655.103 458.174 C 1644.318 461.692, 1636.022 472.075, 1633.982 484.608 C 1631.237 501.476, 1639.671 517.078, 1654.853 523.217 C 1660.491 525.496, 1660.595 525.500, 1720.500 525.734 C 1753.500 525.862, 1781.997 525.975, 1783.827 525.984 C 1788.806 526.008, 1793 530.583, 1793 535.989 C 1793 538.267, 1792.514 541.040, 1791.920 542.150 C 1789.329 546.991, 1789.170 547, 1709.032 547 L 1634 547 1634 558.529 L 1634 570.058 1712.250 569.779 L 1790.500 569.500 1796.617 566.673 C 1799.982 565.118, 1804.573 561.968, 1806.820 559.673 C 1821.165 545.018, 1817.982 517.883, 1800.763 508.049 C 1790.486 502.180, 1788.142 502, 1722.007 502 L 1661.909 502 1659.615 499.706 C 1656.772 496.863, 1655.535 489.940, 1657.050 485.348 C 1659.250 478.684, 1655.780 478.950, 1739.995 478.987 L 1816 479.021 1816 467.511 L 1816 456 1766.162 456 C 1738.751 456, 1705.563 455.813, 1692.412 455.583 C 1679.260 455.354, 1666.925 455.374, 1665 455.627 M 851 513.471 L 851 571 862.500 571 L 874 571 874 552.383 C 874 535.136, 874.129 533.802, 875.750 534.250 C 876.712 534.515, 897.175 542.899, 921.223 552.880 L 964.946 571.028 996.319 570.764 L 1027.692 570.500 970.694 547.500 L 913.695 524.500 960.098 523.989 C 1000.775 523.542, 1007.030 523.267, 1010.799 521.767 C 1033.970 512.537, 1041.282 483.152, 1024.566 466.436 C 1021.212 463.082, 1017.373 460.476, 1013.469 458.904 L 1007.500 456.500 929.250 456.221 L 851 455.942 851 513.471 M 1443 513.500 L 1443 571 1532.033 571 L 1621.066 571 1620.783 559.750 L 1620.500 548.500 1543.250 548.244 L 1466 547.988 1466 501.994 L 1466 456 1454.500 456 L 1443 456 1443 513.500 M 654.211 501.750 L 654.500 546.500 656.923 551.423 C 661.668 561.065, 671.008 567.726, 682.960 569.992 C 690.052 571.337, 800.908 571.339, 808.114 569.995 C 815.928 568.536, 825.334 563.596, 829.450 558.787 C 831.394 556.517, 833.888 552.244, 834.992 549.292 C 836.890 544.220, 837 541.534, 837 500.462 L 837 457 825.500 457 L 814 457 814 499.066 C 814 527.286, 813.644 541.796, 812.920 543.150 C 810.377 547.901, 808.999 548, 745.782 547.998 C 691.341 547.997, 686.215 547.854, 683.014 546.248 C 681.097 545.287, 678.966 543.375, 678.279 542 C 677.341 540.124, 677.026 529.209, 677.015 498.250 L 677 457 665.461 457 L 653.922 457 654.211 501.750 M 1046.242 514.250 L 1046.500 571.500 1058 571.500 L 1069.500 571.500 1069.760 525.750 C 1069.963 490.128, 1070.295 480, 1071.261 480 C 1071.944 480, 1099.379 500.700, 1132.229 526 L 1191.955 572 1208.640 572 L 1225.324 572 1224.664 535.250 C 1224.300 515.038, 1224.002 489.163, 1224.001 477.750 L 1224 457 1212.421 457 L 1200.842 457 1201.171 503 C 1201.415 537.131, 1201.204 549.001, 1200.353 549 C 1199.722 549, 1172.294 528.300, 1139.402 503 L 1079.599 457 1062.792 457 L 1045.984 457 1046.242 514.250 M 1281.500 507.195 C 1261.700 534.797, 1243.323 560.458, 1240.662 564.218 L 1235.824 571.056 1250.139 570.778 L 1264.455 570.500 1296.742 525.500 C 1327.091 483.201, 1329.225 480.482, 1332.287 480.203 C 1335.501 479.910, 1335.998 480.516, 1369.438 525.453 L 1403.331 571 1417.657 571 L 1431.982 571 1417.241 551.157 C 1409.133 540.243, 1390.125 514.610, 1375 494.194 L 1347.500 457.074 1332.500 457.041 L 1317.500 457.009 1281.500 507.195 M 489.415 479.421 C 487.719 480.160, 485.349 482.012, 484.150 483.537 C 482.012 486.255, 481.975 486.850, 482.235 514.297 L 482.500 542.285 485.323 544.393 C 488.108 546.472, 488.929 546.504, 547.323 546.794 C 579.870 546.955, 608.013 546.813, 609.862 546.477 C 611.711 546.142, 614.298 544.793, 615.612 543.479 L 618 541.091 617.996 514.295 C 617.993 489.183, 617.866 487.292, 615.974 484.190 C 612.151 477.918, 612.987 477.996, 549.782 478.039 C 504.104 478.070, 491.875 478.350, 489.415 479.421 M 874 489.341 L 874 499.683 894.250 500.339 C 905.388 500.700, 933.985 500.996, 957.800 500.997 C 1004.353 501, 1004.819 500.952, 1008.439 495.783 C 1009.298 494.558, 1010 491.709, 1010 489.452 C 1010 484.934, 1007.682 481.960, 1002.685 480.067 C 1000.799 479.352, 979.086 479, 936.935 479 L 874 479 874 489.341 M 869.718 649.029 C 860.420 651.372, 852.245 657.765, 848.318 665.761 C 845.861 670.765, 845.500 672.653, 845.500 680.500 C 845.500 688.347, 845.861 690.235, 848.318 695.239 C 851.472 701.661, 857.020 706.764, 864.580 710.195 C 871.991 713.559, 884.484 713.394, 892.148 709.830 C 899.046 706.623, 904.786 701.055, 907.997 694.458 C 911.478 687.306, 911.478 673.694, 907.997 666.542 C 902.821 655.906, 892.562 649.219, 880.290 648.483 C 876.556 648.259, 871.798 648.504, 869.718 649.029 M 1111.447 672.750 C 1105.504 685.813, 1099.159 699.763, 1097.346 703.750 L 1094.050 711 1100.943 711 L 1107.835 711 1109.553 706.500 L 1111.272 702 1129 702 L 1146.728 702 1148.447 706.500 L 1150.165 711 1157.057 711 L 1163.950 711 1160.654 703.750 C 1158.841 699.763, 1152.496 685.813, 1146.553 672.750 L 1135.747 649 1129 649 L 1122.253 649 1111.447 672.750 M 772 680.422 L 772 711 778.500 711 L 785 711 785 700 L 785 689 796.250 688.978 C 811.665 688.948, 816.771 686.579, 820.462 677.746 C 824.100 669.038, 821.083 658.071, 813.705 653.184 C 809.724 650.547, 809.324 650.494, 790.826 650.172 L 772 649.844 772 680.422 M 940 680.500 L 940 711 946.500 711 L 953 711 953 699 L 953 687 960.480 687 L 967.961 687 976 699 L 984.039 711 991.520 711 C 995.634 711, 999 710.771, 999 710.492 C 999 710.212, 995.152 704.700, 990.449 698.242 C 983.038 688.067, 982.119 686.367, 983.557 685.500 C 993.155 679.717, 996.704 669.219, 992.106 660.210 C 987.543 651.269, 983.764 650.100, 959.250 650.044 L 940 650 940 680.500 M 1018 655.500 L 1018 661 1030 661 L 1042 661 1042 686 L 1042 711 1048.500 711 L 1055 711 1055 686 L 1055 661 1068 661 L 1081 661 1081 655.500 L 1081 650 1049.500 650 L 1018 650 1018 655.500 M 1191 680.500 L 1191 711 1216.500 711 L 1242 711 1242 705.500 L 1242 700 1223 700 L 1204 700 1204 675 L 1204 650 1197.500 650 L 1191 650 1191 680.500 M 279 669.500 L 279 683 505.500 683 L 732 683 732 669.500 L 732 656 505.500 656 L 279 656 279 669.500 M 1263 669.500 L 1263 683 1540 683 L 1817 683 1817 669.500 L 1817 656 1540 656 L 1263 656 1263 669.500 M 872.939 661.389 C 863.530 663.877, 858 670.951, 858 680.500 C 858 693.266, 869.541 702.668, 881.849 699.929 C 893.862 697.256, 900.351 686.416, 897.116 674.425 C 894.529 664.832, 883.140 658.692, 872.939 661.389 M 785 669.500 L 785 678 795.427 678 C 805.501 678, 805.925 677.911, 807.927 675.365 C 809.067 673.916, 810 671.277, 810 669.500 C 810 667.723, 809.067 665.084, 807.927 663.635 C 805.925 661.089, 805.501 661, 795.427 661 L 785 661 785 669.500 M 953 668.500 L 953 676 964.545 676 C 975.470 676, 976.223 675.868, 978.545 673.545 C 979.895 672.195, 981 669.925, 981 668.500 C 981 667.075, 979.895 664.805, 978.545 663.455 C 976.223 661.132, 975.470 661, 964.545 661 L 953 661 953 668.500 M 1122.943 677.137 C 1119.949 683.813, 1117.350 689.663, 1117.167 690.137 C 1116.983 690.612, 1122.308 691, 1129 691 C 1135.692 691, 1141.017 690.600, 1140.833 690.112 C 1139.189 685.731, 1129.374 665.002, 1128.943 665.001 C 1128.637 665, 1125.937 670.462, 1122.943 677.137" stroke="none" fill="#fafbfb" fill-rule="evenodd"/><path d="M -0 521 L -0 1042.001 1042.250 1041.750 L 2084.500 1041.500 2084.751 520.750 L 2085.002 0 1042.501 0 L 0 0 -0 521 M 0.496 521.500 C 0.496 808.050, 0.610 925.126, 0.750 781.668 C 0.890 638.211, 0.890 403.761, 0.750 260.668 C 0.610 117.576, 0.496 234.950, 0.496 521.500 M 309.500 289.618 C 296.297 291.728, 287.920 297.687, 282.255 309 C 279.793 313.915, 279.502 315.563, 279.519 324.500 C 279.535 332.569, 279.952 335.403, 281.680 339.176 C 284.868 346.135, 291.089 352.306, 298.253 355.615 L 304.500 358.500 367.678 359 C 429.860 359.492, 430.900 359.533, 433.678 361.596 C 439.301 365.772, 438.975 375.416, 433.109 378.438 C 431.031 379.509, 415.079 379.934, 354.750 380.525 L 279 381.267 279 392.165 C 279 401.061, 279.283 403.171, 280.542 403.654 C 281.390 403.980, 316.603 403.853, 358.792 403.372 L 435.500 402.499 441.762 399.607 C 451.664 395.035, 457.797 386.961, 459.865 375.771 C 462.192 363.185, 457.037 349.498, 447.554 343.084 C 437.381 336.204, 441.151 336.552, 370.777 336 L 307.054 335.500 304.826 333.271 C 301.536 329.980, 300.907 319.093, 303.838 316.162 C 308.096 311.904, 310.837 311.773, 387.496 312.145 L 460.500 312.500 460.783 301.250 L 461.066 290 439.783 289.999 C 428.077 289.998, 394.650 289.805, 365.500 289.568 C 336.350 289.332, 311.150 289.354, 309.500 289.618 M 517.131 290.541 C 498.074 294.676, 483.829 307.495, 477.474 326.226 C 475.060 333.340, 474.659 336.113, 474.615 346 C 474.559 358.739, 475.970 365.036, 481.208 375.412 C 488.093 389.050, 503.572 400.422, 518.652 402.921 C 523.381 403.704, 544.845 403.969, 588 403.778 L 650.500 403.500 650.783 392.250 L 651.066 381 587.214 381 C 515.029 381, 516.341 381.121, 508.316 373.723 C 502.589 368.444, 499.355 362.033, 497.863 353.002 C 495.189 336.806, 501.719 321.882, 514.410 315.186 L 519.500 312.500 585 312.500 L 650.500 312.500 650.781 301.410 L 651.063 290.319 630.781 289.662 C 593.712 288.461, 524.240 288.998, 517.131 290.541 M 783.500 289.968 C 765.904 292.502, 750.497 303.381, 743.093 318.500 C 738.771 327.326, 737 335.465, 737 346.500 C 737 363.819, 742.060 376.980, 753 388.117 C 760.391 395.640, 768.509 400.210, 778.750 402.612 C 784.716 404.012, 792.904 404.112, 849.250 403.472 L 913 402.748 913 391.246 L 913 379.744 849.649 380.486 C 778.572 381.319, 779.303 381.375, 771.183 374.425 C 767.370 371.161, 762 362.745, 762 360.033 C 762 359.335, 779.820 359, 817 359 L 872 359 872 347.500 L 872 336 816.500 336 C 785.975 336, 761 335.812, 761 335.583 C 761 335.354, 761.878 333.117, 762.951 330.613 C 765.679 324.251, 772.103 317.651, 778.273 314.874 L 783.500 312.521 848.250 312.876 L 913 313.232 913 301.616 L 913 290 869.160 290 C 845.048 290, 817.261 289.798, 807.410 289.552 C 797.560 289.306, 786.800 289.493, 783.500 289.968 M 1687 289.660 C 1669.372 292.391, 1653.904 303.293, 1646.599 318.133 C 1633.610 344.520, 1640.686 377.810, 1662.633 393.557 C 1666.509 396.338, 1672.790 399.713, 1676.590 401.057 L 1683.500 403.500 1749.409 403.791 C 1785.659 403.951, 1815.661 403.726, 1816.079 403.291 C 1816.498 402.856, 1816.586 397.663, 1816.276 391.750 L 1815.713 381 1752.515 381 C 1684.638 381, 1684.004 380.957, 1676.394 375.824 C 1671.528 372.541, 1666.330 364.529, 1664.533 357.540 C 1659.928 339.636, 1666.683 321.848, 1680.739 314.865 L 1685.500 312.500 1751 312.500 L 1816.500 312.500 1816.781 301.410 L 1817.063 290.320 1795.870 289.660 C 1773.932 288.977, 1691.409 288.977, 1687 289.660 M 663 301.500 L 663 313 672.500 313 L 682 313 682 347.500 L 682 382 672.500 382 L 663 382 663 393.500 L 663 405 694 405 L 725 405 725 393.500 L 725 382 715.500 382 L 706 382 706 347.500 L 706 313 715.500 313 L 725 313 725 301.500 L 725 290 694 290 L 663 290 663 301.500 M 1115 301.500 L 1115 313 1153.500 313 L 1192 313 1192 359.033 L 1192 405.066 1203.250 404.783 L 1214.500 404.500 1214.760 358.750 L 1215.020 313 1253.510 313 L 1292 313 1292 301.500 L 1292 290 1203.500 290 L 1115 290 1115 301.500 M 1303.217 301.250 L 1303.500 312.500 1313.250 312.786 L 1323 313.072 1323 347.536 L 1323 382 1312.967 382 L 1302.934 382 1303.217 393.250 L 1303.500 404.500 1334.750 404.764 L 1366 405.028 1366 393.514 L 1366 382 1356 382 L 1346 382 1346 347.500 L 1346 313 1356 313 L 1366 313 1366 301.500 L 1366 290 1334.467 290 L 1302.934 290 1303.217 301.250 M 1377.216 300.750 L 1377.500 311.500 1465.750 311.755 L 1554 312.011 1554 301.005 L 1554 290 1465.466 290 L 1376.932 290 1377.216 300.750 M 1566 301.500 L 1566 313 1576 313 L 1586 313 1586 347.500 L 1586 382 1576 382 L 1566 382 1566 393.514 L 1566 405.028 1597.250 404.764 L 1628.500 404.500 1628.783 393.250 L 1629.066 382 1619.033 382 L 1609 382 1609 347.536 L 1609 313.072 1618.750 312.786 L 1628.500 312.500 1628.783 301.250 L 1629.066 290 1597.533 290 L 1566 290 1566 301.500 M 925 348 L 925 405 936.500 405 L 948 405 948 359.500 C 948 316.746, 948.106 314, 949.759 314 C 950.726 314, 978.064 334.459, 1010.509 359.465 L 1069.500 404.930 1086.407 404.965 L 1103.314 405 1102.657 388.340 C 1102.296 379.177, 1102 353.527, 1102 331.340 L 1102 291 1090.500 291 L 1079 291 1079 336.500 C 1079 372.247, 1078.732 381.995, 1077.750 381.975 C 1077.063 381.961, 1049.950 361.488, 1017.500 336.479 L 958.500 291.008 941.750 291.004 L 925 291 925 348 M 1419.411 338.484 C 1395.067 343.781, 1379.101 364.693, 1377.332 393.601 L 1376.696 404 1388.348 404 L 1400 404 1400.001 399.750 C 1400.003 393.565, 1402.632 379.613, 1404.461 376.075 C 1407.121 370.932, 1412.074 366.001, 1417.410 363.186 L 1422.500 360.500 1488.250 360.222 L 1554 359.945 1554 348.472 L 1554 337 1489.750 337.079 C 1440.391 337.141, 1424.089 337.466, 1419.411 338.484 M 267 466.338 L 267 477.676 302.250 478.336 C 321.637 478.700, 356.512 478.998, 379.750 478.998 L 422 479 421.947 488.750 C 421.918 494.113, 421.543 504.369, 421.115 511.543 C 420.472 522.317, 419.894 525.551, 417.798 530.130 C 414.717 536.859, 409.248 542.529, 403.089 545.377 C 398.603 547.452, 397.195 547.507, 340.250 547.795 L 282 548.090 282 559.545 L 282 571 338.250 570.983 C 401.173 570.963, 402.844 570.818, 415.222 564.314 C 427.551 557.835, 435.416 548.409, 440.783 533.679 C 443.389 526.525, 443.400 526.374, 443.767 490.750 L 444.136 455 355.568 455 L 267 455 267 466.338 M 487.045 456.092 C 474.504 458.551, 463.507 468.230, 459.950 479.938 C 458.032 486.254, 457.909 488.787, 458.194 516.115 L 458.500 545.500 461.306 551.214 C 464.729 558.185, 471.271 564.151, 478.853 567.217 L 484.500 569.500 549.500 569.500 L 614.500 569.500 620.147 567.217 C 627.391 564.288, 634.368 558.123, 637.797 551.623 L 640.500 546.500 640.500 514 L 640.500 481.500 637.852 475.852 C 634.804 469.351, 628.858 462.989, 623.072 460.037 C 613.437 455.122, 611.513 454.993, 549.540 455.110 C 517.618 455.170, 489.495 455.612, 487.045 456.092 M 1665 455.627 C 1663.075 455.880, 1658.621 457.027, 1655.103 458.174 C 1644.318 461.692, 1636.022 472.075, 1633.982 484.608 C 1631.237 501.476, 1639.671 517.078, 1654.853 523.217 C 1660.491 525.496, 1660.595 525.500, 1720.500 525.734 C 1753.500 525.862, 1781.997 525.975, 1783.827 525.984 C 1788.806 526.008, 1793 530.583, 1793 535.989 C 1793 538.267, 1792.514 541.040, 1791.920 542.150 C 1789.329 546.991, 1789.170 547, 1709.032 547 L 1634 547 1634 558.529 L 1634 570.058 1712.250 569.779 L 1790.500 569.500 1796.617 566.673 C 1799.982 565.118, 1804.573 561.968, 1806.820 559.673 C 1821.165 545.018, 1817.982 517.883, 1800.763 508.049 C 1790.486 502.180, 1788.142 502, 1722.007 502 L 1661.909 502 1659.615 499.706 C 1656.772 496.863, 1655.535 489.940, 1657.050 485.348 C 1659.250 478.684, 1655.780 478.950, 1739.995 478.987 L 1816 479.021 1816 467.511 L 1816 456 1766.162 456 C 1738.751 456, 1705.563 455.813, 1692.412 455.583 C 1679.260 455.354, 1666.925 455.374, 1665 455.627 M 851 513.471 L 851 571 862.500 571 L 874 571 874 552.383 C 874 535.136, 874.129 533.802, 875.750 534.250 C 876.712 534.515, 897.175 542.899, 921.223 552.880 L 964.946 571.028 996.319 570.764 L 1027.692 570.500 970.694 547.500 L 913.695 524.500 960.098 523.989 C 1000.775 523.542, 1007.030 523.267, 1010.799 521.767 C 1033.970 512.537, 1041.282 483.152, 1024.566 466.436 C 1021.212 463.082, 1017.373 460.476, 1013.469 458.904 L 1007.500 456.500 929.250 456.221 L 851 455.942 851 513.471 M 1443 513.500 L 1443 571 1532.033 571 L 1621.066 571 1620.783 559.750 L 1620.500 548.500 1543.250 548.244 L 1466 547.988 1466 501.994 L 1466 456 1454.500 456 L 1443 456 1443 513.500 M 654.211 501.750 L 654.500 546.500 656.923 551.423 C 661.668 561.065, 671.008 567.726, 682.960 569.992 C 690.052 571.337, 800.908 571.339, 808.114 569.995 C 815.928 568.536, 825.334 563.596, 829.450 558.787 C 831.394 556.517, 833.888 552.244, 834.992 549.292 C 836.890 544.220, 837 541.534, 837 500.462 L 837 457 825.500 457 L 814 457 814 499.066 C 814 527.286, 813.644 541.796, 812.920 543.150 C 810.377 547.901, 808.999 548, 745.782 547.998 C 691.341 547.997, 686.215 547.854, 683.014 546.248 C 681.097 545.287, 678.966 543.375, 678.279 542 C 677.341 540.124, 677.026 529.209, 677.015 498.250 L 677 457 665.461 457 L 653.922 457 654.211 501.750 M 1046.242 514.250 L 1046.500 571.500 1058 571.500 L 1069.500 571.500 1069.760 525.750 C 1069.963 490.128, 1070.295 480, 1071.261 480 C 1071.944 480, 1099.379 500.700, 1132.229 526 L 1191.955 572 1208.640 572 L 1225.324 572 1224.664 535.250 C 1224.300 515.038, 1224.002 489.163, 1224.001 477.750 L 1224 457 1212.421 457 L 1200.842 457 1201.171 503 C 1201.415 537.131, 1201.204 549.001, 1200.353 549 C 1199.722 549, 1172.294 528.300, 1139.402 503 L 1079.599 457 1062.792 457 L 1045.984 457 1046.242 514.250 M 1281.500 507.195 C 1261.700 534.797, 1243.323 560.458, 1240.662 564.218 L 1235.824 571.056 1250.139 570.778 L 1264.455 570.500 1296.742 525.500 C 1327.091 483.201, 1329.225 480.482, 1332.287 480.203 C 1335.501 479.910, 1335.998 480.516, 1369.438 525.453 L 1403.331 571 1417.657 571 L 1431.982 571 1417.241 551.157 C 1409.133 540.243, 1390.125 514.610, 1375 494.194 L 1347.500 457.074 1332.500 457.041 L 1317.500 457.009 1281.500 507.195 M 489.415 479.421 C 487.719 480.160, 485.349 482.012, 484.150 483.537 C 482.012 486.255, 481.975 486.850, 482.235 514.297 L 482.500 542.285 485.323 544.393 C 488.108 546.472, 488.929 546.504, 547.323 546.794 C 579.870 546.955, 608.013 546.813, 609.862 546.477 C 611.711 546.142, 614.298 544.793, 615.612 543.479 L 618 541.091 617.996 514.295 C 617.993 489.183, 617.866 487.292, 615.974 484.190 C 612.151 477.918, 612.987 477.996, 549.782 478.039 C 504.104 478.070, 491.875 478.350, 489.415 479.421 M 874 489.341 L 874 499.683 894.250 500.339 C 905.388 500.700, 933.985 500.996, 957.800 500.997 C 1004.353 501, 1004.819 500.952, 1008.439 495.783 C 1009.298 494.558, 1010 491.709, 1010 489.452 C 1010 484.934, 1007.682 481.960, 1002.685 480.067 C 1000.799 479.352, 979.086 479, 936.935 479 L 874 479 874 489.341 M 869.718 649.029 C 860.420 651.372, 852.245 657.765, 848.318 665.761 C 845.861 670.765, 845.500 672.653, 845.500 680.500 C 845.500 688.347, 845.861 690.235, 848.318 695.239 C 851.472 701.661, 857.020 706.764, 864.580 710.195 C 871.991 713.559, 884.484 713.394, 892.148 709.830 C 899.046 706.623, 904.786 701.055, 907.997 694.458 C 911.478 687.306, 911.478 673.694, 907.997 666.542 C 902.821 655.906, 892.562 649.219, 880.290 648.483 C 876.556 648.259, 871.798 648.504, 869.718 649.029 M 1111.447 672.750 C 1105.504 685.813, 1099.159 699.763, 1097.346 703.750 L 1094.050 711 1100.943 711 L 1107.835 711 1109.553 706.500 L 1111.272 702 1129 702 L 1146.728 702 1148.447 706.500 L 1150.165 711 1157.057 711 L 1163.950 711 1160.654 703.750 C 1158.841 699.763, 1152.496 685.813, 1146.553 672.750 L 1135.747 649 1129 649 L 1122.253 649 1111.447 672.750 M 772 680.422 L 772 711 778.500 711 L 785 711 785 700 L 785 689 796.250 688.978 C 811.665 688.948, 816.771 686.579, 820.462 677.746 C 824.100 669.038, 821.083 658.071, 813.705 653.184 C 809.724 650.547, 809.324 650.494, 790.826 650.172 L 772 649.844 772 680.422 M 940 680.500 L 940 711 946.500 711 L 953 711 953 699 L 953 687 960.480 687 L 967.961 687 976 699 L 984.039 711 991.520 711 C 995.634 711, 999 710.771, 999 710.492 C 999 710.212, 995.152 704.700, 990.449 698.242 C 983.038 688.067, 982.119 686.367, 983.557 685.500 C 993.155 679.717, 996.704 669.219, 992.106 660.210 C 987.543 651.269, 983.764 650.100, 959.250 650.044 L 940 650 940 680.500 M 1018 655.500 L 1018 661 1030 661 L 1042 661 1042 686 L 1042 711 1048.500 711 L 1055 711 1055 686 L 1055 661 1068 661 L 1081 661 1081 655.500 L 1081 650 1049.500 650 L 1018 650 1018 655.500 M 1191 680.500 L 1191 711 1216.500 711 L 1242 711 1242 705.500 L 1242 700 1223 700 L 1204 700 1204 675 L 1204 650 1197.500 650 L 1191 650 1191 680.500 M 279 669.500 L 279 683 505.500 683 L 732 683 732 669.500 L 732 656 505.500 656 L 279 656 279 669.500 M 1263 669.500 L 1263 683 1540 683 L 1817 683 1817 669.500 L 1817 656 1540 656 L 1263 656 1263 669.500 M 872.939 661.389 C 863.530 663.877, 858 670.951, 858 680.500 C 858 693.266, 869.541 702.668, 881.849 699.929 C 893.862 697.256, 900.351 686.416, 897.116 674.425 C 894.529 664.832, 883.140 658.692, 872.939 661.389 M 785 669.500 L 785 678 795.427 678 C 805.501 678, 805.925 677.911, 807.927 675.365 C 809.067 673.916, 810 671.277, 810 669.500 C 810 667.723, 809.067 665.084, 807.927 663.635 C 805.925 661.089, 805.501 661, 795.427 661 L 785 661 785 669.500 M 953 668.500 L 953 676 964.545 676 C 975.470 676, 976.223 675.868, 978.545 673.545 C 979.895 672.195, 981 669.925, 981 668.500 C 981 667.075, 979.895 664.805, 978.545 663.455 C 976.223 661.132, 975.470 661, 964.545 661 L 953 661 953 668.500 M 1122.943 677.137 C 1119.949 683.813, 1117.350 689.663, 1117.167 690.137 C 1116.983 690.612, 1122.308 691, 1129 691 C 1135.692 691, 1141.017 690.600, 1140.833 690.112 C 1139.189 685.731, 1129.374 665.002, 1128.943 665.001 C 1128.637 665, 1125.937 670.462, 1122.943 677.137" stroke="none" fill="#3c94b4" fill-rule="evenodd"/></svg>